<?xml version="1.0" standalone="no"?>
<!DOCTYPE svg PUBLIC "-//W3C//DTD SVG 20010904//EN"
 "http://www.w3.org/TR/2001/REC-SVG-20010904/DTD/svg10.dtd">
<svg version="1.0" xmlns="http://www.w3.org/2000/svg"
 width="512.000000pt" height="512.000000pt" viewBox="0 0 512.000000 512.000000"
 preserveAspectRatio="xMidYMid meet">

<g transform="translate(0.000000,512.000000) scale(0.100000,-0.100000)"
fill="#000000" stroke="none">
<path d="M3708 5109 c-75 -11 -189 -50 -263 -90 -88 -48 -222 -186 -269 -276
l-37 -73 -593 0 -593 0 -51 68 c-197 265 -530 381 -842 292 -230 -66 -404
-243 -468 -477 -22 -80 -15 -124 24 -150 24 -15 41 -15 207 -4 100 7 196 15
214 18 29 5 33 2 47 -32 20 -47 20 -135 1 -182 l-15 -36 -53 6 c-28 3 -125 12
-214 18 -148 12 -163 11 -188 -5 -59 -39 -51 -114 27 -256 254 -459 980 -485
1268 -44 25 39 52 85 59 102 l13 32 593 0 593 0 37 -52 c87 -120 193 -210 318
-269 90 -42 155 -58 262 -65 332 -22 601 141 723 438 14 35 27 86 30 115 4 45
1 55 -21 77 -21 21 -36 26 -76 26 -49 0 -266 -15 -348 -25 -41 -4 -43 -3 -58
31 -19 47 -19 134 0 181 l15 36 63 -6 c34 -4 128 -12 210 -18 168 -14 188 -10
213 45 15 31 15 37 -1 87 -112 342 -452 543 -827 488z"/>
<path d="M1285 3094 c-53 -19 -99 -66 -124 -124 -20 -47 -301 -799 -301 -806
0 -2 434 -4 964 -4 l963 0 17 68 c49 203 209 381 407 456 279 105 600 2 771
-248 45 -65 79 -143 98 -223 l12 -53 114 0 c63 0 114 2 114 5 0 2 -70 192
-155 422 -149 401 -157 420 -198 460 -24 23 -61 46 -83 52 -27 8 -423 11
-1299 10 -1077 0 -1266 -3 -1300 -15z"/>
<path d="M3350 2530 c-162 -34 -329 -191 -364 -342 l-6 -28 460 0 460 0 -6 28
c-32 133 -147 261 -286 316 -75 29 -186 41 -258 26z"/>
<path d="M668 1884 c-84 -73 -102 -95 -135 -161 l-38 -77 -3 -425 c-2 -303 0
-437 8 -467 16 -55 64 -112 114 -135 39 -18 114 -19 1946 -19 1832 0 1907 1
1946 19 50 23 98 80 114 135 8 29 10 169 8 481 -4 530 2 504 -136 647 l-85 88
-1821 0 -1821 -1 -97 -85z m940 -315 c60 -21 62 -29 62 -339 l0 -282 -29 -29
-29 -29 -396 0 -395 0 -28 24 -28 24 -3 278 c-2 190 1 286 8 305 24 56 40 59
441 59 236 0 377 -4 397 -11z m2697 -5 c18 -8 38 -28 45 -43 7 -19 10 -114 8
-305 l-3 -278 -28 -24 -28 -24 -395 0 -396 0 -29 29 -29 29 0 284 c0 309 1
314 60 337 15 6 178 10 393 10 316 1 374 -1 402 -15z m-1234 -104 c28 -16 52
-68 44 -99 -4 -14 -16 -36 -27 -48 l-21 -23 -507 0 -507 0 -21 23 c-30 32 -36
69 -18 105 9 17 24 36 33 41 25 14 997 15 1024 1z m-2 -295 c56 -28 63 -101
14 -147 l-25 -23 -498 0 -498 0 -25 23 c-48 45 -42 118 12 147 39 21 979 22
1020 0z"/>
<path d="M950 1230 l0 -160 268 2 267 3 3 158 3 157 -271 0 -270 0 0 -160z"/>
<path d="M3632 1233 l3 -158 268 -3 267 -2 0 160 0 160 -270 0 -271 0 3 -157z"/>
<path d="M492 307 c3 -151 4 -155 33 -202 22 -36 45 -57 84 -77 52 -27 57 -28
222 -28 185 0 219 7 273 58 53 50 66 94 66 229 l0 122 -282 3 c-269 3 -285 4
-332 26 -27 12 -53 22 -58 22 -6 0 -8 -59 -6 -153z"/>
<path d="M4560 437 c-42 -21 -62 -22 -327 -25 l-283 -3 0 -120 c0 -131 11
-172 58 -223 54 -57 89 -66 278 -66 169 0 173 0 225 28 39 20 62 41 84 77 29
47 30 51 33 202 4 171 7 166 -68 130z"/>
</g>
</svg>
